<svg width="1076" height="536" viewBox="0 0 1076 536" fill="none" xmlns="http://www.w3.org/2000/svg">
<path d="M45.7741 63.1889H60.5114C60.2983 50.2273 49.6449 41.2784 33.4517 41.2784C17.5071 41.2784 5.82386 50.0852 5.89489 63.2955C5.85938 74.0199 13.4233 80.1634 25.7102 83.1108L33.6293 85.0994C41.5483 87.017 45.9517 89.2898 45.9872 94.1903C45.9517 99.517 40.9091 103.139 33.0966 103.139C25.1065 103.139 19.3537 99.446 18.8565 92.1662H3.97727C4.3679 107.898 15.625 116.03 33.2741 116.03C51.0298 116.03 61.4702 107.543 61.5057 94.2259C61.4702 82.1165 52.3438 75.6889 39.7017 72.848L33.1676 71.2855C26.8466 69.8295 21.5554 67.4858 21.6619 62.2656C21.6619 57.5781 25.8168 54.1335 33.3452 54.1335C40.696 54.1335 45.206 57.4716 45.7741 63.1889ZM71.5643 115H86.6921V97.6705L90.7759 93.0185L105.655 115H123.375L102.104 84.0696L122.346 60.4545H104.98L87.5089 81.1577H86.6921V42.2727H71.5643V115ZM129.767 115H144.895V60.4545H129.767V115ZM137.367 53.4233C141.877 53.4233 145.57 49.9787 145.57 45.7528C145.57 41.5625 141.877 38.1179 137.367 38.1179C132.892 38.1179 129.199 41.5625 129.199 45.7528C129.199 49.9787 132.892 53.4233 137.367 53.4233ZM172.141 42.2727H157.013V115H172.141V42.2727ZM199.387 42.2727H184.26V115H199.387V42.2727ZM256.889 76.0085C255.54 65.9588 247.443 59.7443 233.665 59.7443C219.709 59.7443 210.511 66.2074 210.547 76.7188C210.511 84.8864 215.661 90.1776 226.314 92.3082L235.76 94.1903C240.518 95.1491 242.685 96.8892 242.756 99.6236C242.685 102.855 239.169 105.163 233.878 105.163C228.48 105.163 224.893 102.855 223.97 98.4162L209.091 99.1974C210.511 109.638 219.389 116.065 233.842 116.065C247.976 116.065 258.097 108.857 258.132 98.0966C258.097 90.2131 252.947 85.4901 242.365 83.3239L232.493 81.3352C227.415 80.2344 225.533 78.4943 225.568 75.8665C225.533 72.5994 229.226 70.4688 233.913 70.4688C239.169 70.4688 242.294 73.3452 243.04 76.8608L256.889 76.0085Z" fill="white" fill-opacity="0.03"/>
<g opacity="0.8">
<rect x="1076" y="36.9785" width="0.73224" height="502" transform="rotate(90 1076 36.9785)" fill="url(#paint0_linear_420_28)" fill-opacity="0.1"/>
<rect x="656.638" width="0.685792" height="536" fill="url(#paint1_linear_420_28)" fill-opacity="0.1"/>
<rect x="1076" y="88.2346" width="0.73224" height="502" transform="rotate(90 1076 88.2346)" fill="url(#paint2_linear_420_28)" fill-opacity="0.1"/>
<rect x="704.644" width="0.685792" height="536" fill="url(#paint3_linear_420_28)" fill-opacity="0.1"/>
<rect x="1076" y="139.491" width="0.73224" height="502" transform="rotate(90 1076 139.491)" fill="url(#paint4_linear_420_28)" fill-opacity="0.1"/>
<rect x="752.649" width="0.685792" height="536" fill="url(#paint5_linear_420_28)" fill-opacity="0.1"/>
<rect x="1076" y="190.749" width="0.73224" height="502" transform="rotate(90 1076 190.749)" fill="url(#paint6_linear_420_28)" fill-opacity="0.1"/>
<rect x="800.654" width="0.685792" height="536" fill="url(#paint7_linear_420_28)" fill-opacity="0.1"/>
<rect x="1076" y="242.006" width="0.73224" height="502" transform="rotate(90 1076 242.006)" fill="url(#paint8_linear_420_28)" fill-opacity="0.1"/>
<rect x="848.66" width="0.685792" height="536" fill="url(#paint9_linear_420_28)" fill-opacity="0.1"/>
<rect x="1076" y="293.262" width="0.73224" height="502" transform="rotate(90 1076 293.262)" fill="url(#paint10_linear_420_28)" fill-opacity="0.1"/>
<rect x="896.665" width="0.685792" height="536" fill="url(#paint11_linear_420_28)" fill-opacity="0.1"/>
<rect x="1076" y="344.519" width="0.73224" height="502" transform="rotate(90 1076 344.519)" fill="url(#paint12_linear_420_28)" fill-opacity="0.1"/>
<rect x="944.671" width="0.685792" height="536" fill="url(#paint13_linear_420_28)" fill-opacity="0.1"/>
<rect x="1076" y="395.776" width="0.73224" height="502" transform="rotate(90 1076 395.776)" fill="url(#paint14_linear_420_28)" fill-opacity="0.1"/>
<rect x="992.676" width="0.685792" height="536" fill="url(#paint15_linear_420_28)" fill-opacity="0.1"/>
<rect x="1076" y="447.033" width="0.73224" height="502" transform="rotate(90 1076 447.033)" fill="url(#paint16_linear_420_28)" fill-opacity="0.1"/>
<rect x="1040.68" width="0.685792" height="536" fill="url(#paint17_linear_420_28)" fill-opacity="0.1"/>
<rect x="1076" y="498.29" width="0.73224" height="502" transform="rotate(90 1076 498.29)" fill="url(#paint18_linear_420_28)" fill-opacity="0.1"/>
</g>
<defs>
<linearGradient id="paint0_linear_420_28" x1="1076.37" y1="36.9785" x2="1076.37" y2="538.979" gradientUnits="userSpaceOnUse">
<stop stop-color="white" stop-opacity="0"/>
<stop offset="0.489583" stop-color="white"/>
<stop offset="1" stop-color="white" stop-opacity="0"/>
</linearGradient>
<linearGradient id="paint1_linear_420_28" x1="656.981" y1="0" x2="656.981" y2="536" gradientUnits="userSpaceOnUse">
<stop stop-color="white" stop-opacity="0"/>
<stop offset="0.489583" stop-color="white"/>
<stop offset="1" stop-color="white" stop-opacity="0"/>
</linearGradient>
<linearGradient id="paint2_linear_420_28" x1="1076.37" y1="88.2346" x2="1076.37" y2="590.235" gradientUnits="userSpaceOnUse">
<stop stop-color="white" stop-opacity="0"/>
<stop offset="0.489583" stop-color="white"/>
<stop offset="1" stop-color="white" stop-opacity="0"/>
</linearGradient>
<linearGradient id="paint3_linear_420_28" x1="704.986" y1="0" x2="704.986" y2="536" gradientUnits="userSpaceOnUse">
<stop stop-color="white" stop-opacity="0"/>
<stop offset="0.489583" stop-color="white"/>
<stop offset="1" stop-color="white" stop-opacity="0"/>
</linearGradient>
<linearGradient id="paint4_linear_420_28" x1="1076.37" y1="139.491" x2="1076.37" y2="641.491" gradientUnits="userSpaceOnUse">
<stop stop-color="white" stop-opacity="0"/>
<stop offset="0.489583" stop-color="white"/>
<stop offset="1" stop-color="white" stop-opacity="0"/>
</linearGradient>
<linearGradient id="paint5_linear_420_28" x1="752.992" y1="0" x2="752.992" y2="536" gradientUnits="userSpaceOnUse">
<stop stop-color="white" stop-opacity="0"/>
<stop offset="0.489583" stop-color="white"/>
<stop offset="1" stop-color="white" stop-opacity="0"/>
</linearGradient>
<linearGradient id="paint6_linear_420_28" x1="1076.37" y1="190.749" x2="1076.37" y2="692.749" gradientUnits="userSpaceOnUse">
<stop stop-color="white" stop-opacity="0"/>
<stop offset="0.489583" stop-color="white"/>
<stop offset="1" stop-color="white" stop-opacity="0"/>
</linearGradient>
<linearGradient id="paint7_linear_420_28" x1="800.997" y1="0" x2="800.997" y2="536" gradientUnits="userSpaceOnUse">
<stop stop-color="white" stop-opacity="0"/>
<stop offset="0.489583" stop-color="white"/>
<stop offset="1" stop-color="white" stop-opacity="0"/>
</linearGradient>
<linearGradient id="paint8_linear_420_28" x1="1076.37" y1="242.006" x2="1076.37" y2="744.006" gradientUnits="userSpaceOnUse">
<stop stop-color="white" stop-opacity="0"/>
<stop offset="0.489583" stop-color="white"/>
<stop offset="1" stop-color="white" stop-opacity="0"/>
</linearGradient>
<linearGradient id="paint9_linear_420_28" x1="849.003" y1="0" x2="849.003" y2="536" gradientUnits="userSpaceOnUse">
<stop stop-color="white" stop-opacity="0"/>
<stop offset="0.489583" stop-color="white"/>
<stop offset="1" stop-color="white" stop-opacity="0"/>
</linearGradient>
<linearGradient id="paint10_linear_420_28" x1="1076.37" y1="293.262" x2="1076.37" y2="795.262" gradientUnits="userSpaceOnUse">
<stop stop-color="white" stop-opacity="0"/>
<stop offset="0.489583" stop-color="white"/>
<stop offset="1" stop-color="white" stop-opacity="0"/>
</linearGradient>
<linearGradient id="paint11_linear_420_28" x1="897.008" y1="0" x2="897.008" y2="536" gradientUnits="userSpaceOnUse">
<stop stop-color="white" stop-opacity="0"/>
<stop offset="0.489583" stop-color="white"/>
<stop offset="1" stop-color="white" stop-opacity="0"/>
</linearGradient>
<linearGradient id="paint12_linear_420_28" x1="1076.37" y1="344.519" x2="1076.37" y2="846.519" gradientUnits="userSpaceOnUse">
<stop stop-color="white" stop-opacity="0"/>
<stop offset="0.489583" stop-color="white"/>
<stop offset="1" stop-color="white" stop-opacity="0"/>
</linearGradient>
<linearGradient id="paint13_linear_420_28" x1="945.014" y1="0" x2="945.014" y2="536" gradientUnits="userSpaceOnUse">
<stop stop-color="white" stop-opacity="0"/>
<stop offset="0.489583" stop-color="white"/>
<stop offset="1" stop-color="white" stop-opacity="0"/>
</linearGradient>
<linearGradient id="paint14_linear_420_28" x1="1076.37" y1="395.776" x2="1076.37" y2="897.776" gradientUnits="userSpaceOnUse">
<stop stop-color="white" stop-opacity="0"/>
<stop offset="0.489583" stop-color="white"/>
<stop offset="1" stop-color="white" stop-opacity="0"/>
</linearGradient>
<linearGradient id="paint15_linear_420_28" x1="993.019" y1="0" x2="993.019" y2="536" gradientUnits="userSpaceOnUse">
<stop stop-color="white" stop-opacity="0"/>
<stop offset="0.489583" stop-color="white"/>
<stop offset="1" stop-color="white" stop-opacity="0"/>
</linearGradient>
<linearGradient id="paint16_linear_420_28" x1="1076.37" y1="447.033" x2="1076.37" y2="949.033" gradientUnits="userSpaceOnUse">
<stop stop-color="white" stop-opacity="0"/>
<stop offset="0.489583" stop-color="white"/>
<stop offset="1" stop-color="white" stop-opacity="0"/>
</linearGradient>
<linearGradient id="paint17_linear_420_28" x1="1041.02" y1="0" x2="1041.02" y2="536" gradientUnits="userSpaceOnUse">
<stop stop-color="white" stop-opacity="0"/>
<stop offset="0.489583" stop-color="white"/>
<stop offset="1" stop-color="white" stop-opacity="0"/>
</linearGradient>
<linearGradient id="paint18_linear_420_28" x1="1076.37" y1="498.29" x2="1076.37" y2="1000.29" gradientUnits="userSpaceOnUse">
<stop stop-color="white" stop-opacity="0"/>
<stop offset="0.489583" stop-color="white"/>
<stop offset="1" stop-color="white" stop-opacity="0"/>
</linearGradient>
</defs>
</svg>
