<?xml version="1.0" standalone="no"?>
<!DOCTYPE svg PUBLIC "-//W3C//DTD SVG 20010904//EN"
 "http://www.w3.org/TR/2001/REC-SVG-20010904/DTD/svg10.dtd">
<svg version="1.0" xmlns="http://www.w3.org/2000/svg"
 width="1355.000000pt" height="624.000000pt" viewBox="0 0 1355.000000 624.000000"
 preserveAspectRatio="xMidYMid meet">

<g transform="translate(0.000000,624.000000) scale(0.100000,-0.100000)"
fill="#000000" stroke="none">
<path d="M0 3671 l0 -2568 268 -67 c860 -212 1988 -424 2937 -550 1082 -145
1966 -217 3005 -247 350 -10 1163 -6 1345 6 33 2 128 7 210 10 1041 39 2288
173 3510 376 636 106 1440 270 1988 406 l267 67 0 2562 c0 2041 3 2563 13
2567 6 3 -3038 6 -6765 6 l-6778 1 0 -2569z m12604 2147 c83 -25 156 -126 156
-218 0 -92 -73 -193 -156 -218 -30 -9 -162 -12 -474 -12 -312 0 -444 3 -474
12 -83 25 -156 126 -156 218 0 88 72 192 150 217 52 16 899 17 954 1z m-11724
-168 c13 -13 20 -33 20 -60 0 -53 -27 -80 -80 -80 l-40 0 0 80 0 80 40 0 c27
0 47 -7 60 -20z m170 5 c0 -10 -10 -15 -30 -15 -20 0 -30 -5 -30 -15 0 -9 9
-15 25 -15 16 0 25 -6 25 -15 0 -9 -9 -15 -25 -15 -18 0 -25 -5 -25 -20 0 -16
7 -20 30 -20 20 0 30 -5 30 -15 0 -11 -12 -15 -50 -15 l-50 0 0 80 0 80 50 0
c38 0 50 -4 50 -15z m159 6 c21 -13 5 -29 -24 -23 -33 6 -55 -13 -55 -48 0
-35 22 -54 55 -48 29 6 45 -10 24 -23 -49 -31 -109 8 -109 69 0 63 60 104 109
73z m167 -12 c11 -13 19 -35 19 -59 0 -49 -27 -80 -70 -80 -39 0 -64 25 -71
71 -12 72 75 120 122 68z m174 16 c0 -3 -16 -31 -35 -61 -19 -30 -35 -56 -35
-59 0 -2 14 -5 32 -7 17 -2 33 -9 36 -15 3 -10 -13 -13 -57 -13 -34 0 -61 4
-61 8 0 4 16 32 34 62 l35 55 -30 3 c-17 2 -29 9 -29 18 0 10 14 14 55 14 30
0 55 -2 55 -5z m3930 -18 c0 -5 -9 -7 -19 -4 -10 2 -25 1 -32 -4 -12 -8 -11
-11 1 -20 11 -8 12 -12 3 -16 -7 -2 -13 -20 -13 -39 0 -49 -17 -42 -22 9 -7
62 7 87 48 85 19 -1 34 -6 34 -11z m42 -49 c4 -70 4 -73 -11 -63 -13 8 -15
125 -2 125 5 0 11 -28 13 -62z m638 20 l0 -43 20 25 c10 14 22 22 26 18 4 -4
1 -14 -5 -22 -10 -12 -9 -20 4 -40 18 -28 6 -36 -15 -11 -7 8 -16 15 -21 15
-5 0 -9 -7 -9 -15 0 -8 -4 -15 -10 -15 -6 0 -10 28 -10 65 0 37 4 65 10 65 6
0 10 -19 10 -42z m100 32 c0 -5 -4 -10 -10 -10 -5 0 -10 5 -10 10 0 6 5 10 10
10 6 0 10 -4 10 -10z m42 -52 c4 -69 2 -80 -12 -58 -12 19 -13 120 -1 120 5 0
11 -28 13 -62z m50 0 c4 -70 4 -73 -11 -63 -13 8 -15 125 -2 125 5 0 11 -28
13 -62z m798 52 c0 -5 -4 -10 -10 -10 -5 0 -10 5 -10 10 0 6 5 10 10 10 6 0
10 -4 10 -10z m-1940 -21 c9 -16 8 -25 -6 -40 -9 -10 -25 -19 -36 -19 -11 0
-18 -7 -18 -20 0 -11 -4 -20 -10 -20 -6 0 -10 27 -10 60 l0 60 35 0 c25 0 37
-6 45 -21z m894 15 c9 -3 13 -10 10 -15 -3 -5 -10 -7 -15 -3 -6 3 -17 3 -26
-1 -14 -5 -11 -10 15 -25 53 -32 31 -84 -28 -65 -32 10 -23 25 10 19 37 -8 41
12 6 28 -58 26 -31 85 28 62z m820 0 c9 -3 16 -17 16 -31 0 -18 -8 -28 -30
-36 -18 -7 -30 -19 -30 -29 0 -10 -4 -18 -10 -18 -6 0 -10 27 -10 60 0 57 1
60 24 60 13 0 31 -3 40 -6z m961 -3 c3 -5 -7 -11 -22 -13 -25 -3 -28 -7 -28
-38 0 -32 3 -35 28 -35 31 1 31 -18 0 -23 -45 -7 -72 68 -37 102 17 18 50 21
59 7z m-507 -18 c12 -12 13 -18 4 -21 -14 -4 -16 -52 -2 -52 6 0 10 -5 10 -11
0 -6 -8 -9 -17 -7 -25 5 -40 108 -16 108 2 0 12 -8 21 -17z m770 0 c12 -12 13
-18 4 -21 -14 -4 -16 -52 -2 -52 6 0 10 -5 10 -11 0 -6 -8 -9 -17 -7 -25 5
-40 108 -16 108 2 0 12 -8 21 -17z m240 -3 c15 -1 15 -2 0 -14 -22 -16 -23
-45 -3 -52 19 -8 20 -24 1 -24 -18 0 -26 13 -36 54 -6 28 10 67 18 45 2 -5 11
-9 20 -9z m-3098 -11 c0 -5 -7 -9 -15 -9 -10 0 -15 -11 -15 -35 0 -19 -4 -35
-10 -35 -5 0 -10 19 -10 43 0 38 2 42 25 43 14 1 25 -2 25 -7z m80 -3 c28 -35
-11 -93 -47 -70 -36 22 -23 84 17 84 10 0 23 -7 30 -14z m110 -31 c0 -25 -4
-45 -10 -45 -5 0 -10 20 -10 45 0 25 5 45 10 45 6 0 10 -20 10 -45z m141 18
c7 -21 5 -23 -21 -23 -38 0 -39 -17 -2 -22 24 -4 25 -5 8 -13 -24 -11 -50 5
-54 34 -8 49 52 69 69 24z m639 -18 c0 -25 -4 -45 -10 -45 -5 0 -10 20 -10 45
0 25 5 45 10 45 6 0 10 -20 10 -45z m175 35 c3 -6 -4 -10 -17 -10 l-23 0 24
-19 c30 -23 22 -51 -14 -51 -14 0 -25 5 -25 10 0 6 10 10 23 10 l22 0 -24 19
c-16 12 -22 24 -18 35 7 18 42 22 52 6z m568 -7 c-15 -10 -23 -26 -23 -44 0
-16 -4 -29 -10 -29 -5 0 -10 20 -10 43 0 43 1 44 33 45 32 0 32 0 10 -15z m91
1 c9 -8 16 -22 16 -29 0 -7 -7 -21 -16 -29 -8 -9 -22 -16 -29 -16 -7 0 -21 7
-29 16 -9 8 -16 22 -16 29 0 7 7 21 16 29 8 9 22 16 29 16 7 0 21 -7 29 -16z
m56 -28 c0 -24 -3 -51 -6 -60 -7 -17 -34 -22 -34 -6 0 6 5 10 10 10 6 0 10 23
10 50 0 28 5 50 10 50 6 0 10 -20 10 -44z m88 17 c3 -19 -1 -23 -22 -23 -35 0
-33 -18 2 -22 24 -4 25 -5 8 -13 -38 -17 -73 37 -45 71 18 22 53 13 57 -13z
m87 18 c3 -5 -5 -11 -17 -13 -32 -4 -31 -40 2 -49 23 -6 23 -7 6 -14 -38 -16
-73 37 -46 71 14 16 46 19 55 5z m655 -5 c28 -35 -11 -93 -47 -70 -36 22 -23
84 17 84 10 0 23 -7 30 -14z m108 -33 c2 -26 -1 -43 -7 -43 -6 0 -11 16 -11
36 0 28 -3 35 -17 32 -12 -2 -19 -14 -21 -36 -5 -48 -22 -39 -22 12 l0 44 38
-1 c36 -2 37 -3 40 -44z m150 2 c3 -40 2 -41 -30 -40 -44 0 -51 30 -11 47 27
11 27 12 5 16 -28 4 -18 24 11 20 18 -2 23 -11 25 -43z m92 35 c0 -5 -9 -10
-19 -10 -11 0 -21 -6 -24 -12 -7 -21 4 -38 25 -38 10 0 16 -4 13 -10 -14 -23
-65 4 -65 35 0 7 7 21 16 29 17 18 54 22 54 6z m-5128 -447 c61 -61 67 -73 43
-93 -8 -7 -15 -23 -15 -36 0 -27 -21 -32 -40 -9 -7 8 -23 15 -36 15 -23 0 -24
2 -24 90 0 50 3 90 7 90 4 0 33 -26 65 -57z m1443 -1148 c0 -30 -39 -27 -43 3
-3 20 0 23 20 20 15 -2 23 -10 23 -23z m529 16 c10 -16 -5 -41 -24 -41 -19 0
-34 25 -24 41 3 5 14 9 24 9 10 0 21 -4 24 -9z m766 -6 c0 -10 -10 -15 -30
-15 -20 0 -30 -5 -30 -15 0 -10 10 -15 30 -15 20 0 30 -5 30 -15 0 -10 -10
-15 -30 -15 -29 0 -30 -1 -30 -50 0 -47 2 -50 25 -50 16 0 25 -6 25 -15 0 -12
-14 -15 -70 -15 -56 0 -70 3 -70 15 0 9 9 15 25 15 23 0 25 3 25 50 0 47 -2
50 -25 50 -16 0 -25 6 -25 15 0 9 9 15 25 15 17 0 25 5 25 18 0 28 21 42 62
42 27 0 38 -4 38 -15z m300 -80 c0 -95 0 -95 25 -95 16 0 25 -6 25 -15 0 -12
-14 -15 -70 -15 -56 0 -70 3 -70 15 0 9 9 15 25 15 25 0 25 1 25 80 0 79 0 80
-25 80 -16 0 -25 6 -25 15 0 11 12 15 45 15 l45 0 0 -95z m180 0 c0 -95 0 -95
25 -95 16 0 25 -6 25 -15 0 -12 -14 -15 -70 -15 -56 0 -70 3 -70 15 0 9 9 15
25 15 25 0 25 1 25 80 0 79 0 80 -25 80 -16 0 -25 6 -25 15 0 11 12 15 45 15
l45 0 0 -95z m1030 33 l0 -62 33 32 c18 18 44 32 57 32 24 0 24 0 -8 -33 l-32
-33 30 -40 c36 -47 37 -54 8 -54 -15 0 -31 12 -46 36 -26 39 -42 37 -42 -7 0
-22 -5 -29 -20 -29 -19 0 -20 7 -20 110 0 103 1 110 20 110 18 0 20 -7 20 -62z
m720 22 c0 -37 1 -39 20 -28 51 32 104 -33 84 -104 -12 -40 -54 -59 -84 -40
-12 7 -20 8 -20 2 0 -5 -9 -10 -20 -10 -19 0 -20 7 -20 110 0 103 1 110 20
110 17 0 20 -7 20 -40z m460 -70 c0 -103 -1 -110 -20 -110 -11 0 -20 5 -20 10
0 6 -7 6 -18 -1 -51 -32 -104 29 -86 99 11 43 52 65 84 44 19 -11 20 -9 20 28
0 33 3 40 20 40 19 0 20 -7 20 -110z m670 15 c0 -95 0 -95 25 -95 16 0 25 -6
25 -15 0 -12 -14 -15 -70 -15 -56 0 -70 3 -70 15 0 9 9 15 25 15 25 0 25 1 25
80 0 79 0 80 -25 80 -16 0 -25 6 -25 15 0 11 12 15 45 15 l45 0 0 -95z m-5710
70 c0 -9 -9 -15 -25 -15 -24 0 -25 -2 -25 -75 0 -73 1 -75 25 -75 16 0 25 -6
25 -15 0 -12 -14 -15 -70 -15 -56 0 -70 3 -70 15 0 9 9 15 25 15 24 0 25 2 25
75 0 73 -1 75 -25 75 -16 0 -25 6 -25 15 0 12 14 15 70 15 56 0 70 -3 70 -15z
m3360 -10 c0 -21 5 -25 30 -25 20 0 30 -5 30 -15 0 -10 -10 -15 -30 -15 -29 0
-30 -1 -30 -50 0 -49 1 -50 30 -50 20 0 30 -5 30 -15 0 -10 -10 -15 -34 -15
-60 0 -66 6 -66 71 0 56 -1 59 -25 59 -32 0 -34 27 -2 32 14 2 23 11 25 26 5
32 42 30 42 -3z m-3209 -35 c15 -9 19 -22 19 -65 0 -30 5 -55 10 -55 6 0 10
-7 10 -15 0 -17 -35 -20 -46 -4 -4 8 -9 8 -17 0 -15 -15 -60 -14 -75 1 -15 15
-15 51 0 66 7 7 27 12 45 12 23 0 33 5 33 15 0 21 -29 31 -50 17 -10 -6 -22
-7 -31 -1 -12 8 -11 12 5 24 23 17 69 20 97 5z m145 -1 c3 -5 13 -3 23 3 38
24 51 4 51 -77 0 -60 -3 -75 -15 -75 -11 0 -15 12 -15 49 0 54 -7 81 -21 81
-5 0 -9 -29 -9 -65 0 -58 -2 -65 -20 -65 -18 0 -20 7 -20 65 0 37 -4 65 -10
65 -6 0 -10 -28 -10 -65 0 -58 -2 -65 -20 -65 -18 0 -20 7 -20 79 l0 80 40 -1
c22 0 43 -4 46 -9z m395 1 c15 -9 19 -22 19 -65 0 -30 5 -55 10 -55 6 0 10 -7
10 -15 0 -17 -35 -20 -46 -4 -4 8 -9 8 -17 0 -15 -15 -60 -14 -75 1 -15 15
-15 51 0 66 7 7 27 12 45 12 23 0 33 5 33 15 0 21 -29 31 -50 17 -10 -6 -22
-7 -31 -1 -12 8 -11 12 5 24 23 17 69 20 97 5z m357 -97 l-3 -108 -47 -3 c-38
-2 -48 0 -48 12 0 11 10 16 30 16 l30 0 0 80 0 80 -30 0 c-20 0 -30 5 -30 15
0 11 12 15 50 15 l51 0 -3 -107z m112 53 c0 -61 19 -88 45 -66 10 8 15 31 15
66 0 47 2 54 20 54 18 0 20 -7 20 -80 0 -73 -2 -80 -20 -80 -11 0 -20 5 -20
12 0 9 -3 9 -12 0 -17 -17 -54 -15 -72 4 -11 11 -16 35 -16 80 0 57 2 64 20
64 18 0 20 -7 20 -54z m180 42 c0 -9 3 -9 12 0 17 17 54 15 72 -4 11 -11 16
-35 16 -80 0 -57 -2 -64 -20 -64 -18 0 -20 7 -20 59 0 45 -4 60 -16 65 -29 11
-44 -13 -44 -70 0 -47 -2 -54 -20 -54 -18 0 -20 7 -20 80 0 73 2 80 20 80 11
0 20 -5 20 -12z m240 -53 c0 -63 1 -65 25 -65 16 0 25 -6 25 -15 0 -12 -14
-15 -70 -15 -56 0 -70 3 -70 15 0 9 9 15 25 15 23 0 25 3 25 50 0 47 -2 50
-25 50 -16 0 -25 6 -25 15 0 11 12 15 45 15 l45 0 0 -65z m205 40 c71 -70 -29
-179 -106 -116 -18 14 -24 29 -24 61 0 32 6 47 24 61 32 27 77 24 106 -6z
m135 9 c0 -14 1 -14 16 0 22 23 54 20 54 -4 0 -15 -7 -20 -29 -20 -31 0 -41
-14 -41 -61 0 -26 4 -29 30 -29 20 0 30 -5 30 -15 0 -12 -14 -15 -70 -15 -56
0 -70 3 -70 15 0 8 9 15 20 15 17 0 20 7 20 50 0 43 -3 50 -20 50 -11 0 -20 7
-20 15 0 11 11 15 40 15 30 0 40 -4 40 -16z m500 -38 c0 -35 5 -58 15 -66 26
-22 45 5 45 66 0 47 2 54 20 54 18 0 20 -7 20 -80 0 -73 -2 -80 -20 -80 -11 0
-20 5 -20 12 0 9 -3 9 -12 0 -17 -17 -54 -15 -72 4 -11 11 -16 35 -16 80 0 57
2 64 20 64 18 0 20 -7 20 -54z m801 43 c31 -16 12 -30 -32 -23 -31 5 -39 3
-39 -8 0 -9 13 -18 32 -22 39 -8 58 -23 58 -47 0 -29 -28 -49 -69 -49 -46 0
-82 23 -64 41 10 10 15 10 27 0 18 -15 58 -11 63 6 2 6 -13 14 -37 18 -51 9
-68 36 -45 71 17 26 69 33 106 13z m350 1 c15 -9 19 -22 19 -65 0 -30 5 -55
10 -55 6 0 10 -7 10 -15 0 -17 -35 -20 -46 -4 -4 8 -9 8 -17 0 -15 -15 -60
-14 -75 1 -7 7 -12 21 -12 33 0 30 19 45 57 45 23 0 33 5 33 15 0 21 -29 31
-50 17 -10 -6 -22 -7 -31 -1 -12 8 -11 12 5 24 23 17 69 20 97 5z m193 -9 c23
-25 3 -38 -30 -21 -30 17 -54 -1 -54 -40 0 -40 24 -57 56 -40 19 11 27 11 37
1 17 -17 -16 -41 -57 -41 -67 0 -102 86 -54 137 27 29 78 31 102 4z m441 -38
c8 -63 10 -62 20 10 10 76 54 60 55 -20 0 -13 5 -23 10 -23 6 0 10 20 10 45 0
39 3 45 21 45 15 0 19 -5 15 -17 -2 -10 -8 -46 -11 -80 -6 -57 -9 -63 -30 -63
-26 0 -35 17 -35 63 0 41 -18 23 -22 -23 -2 -29 -7 -35 -29 -38 -26 -3 -27 -1
-34 60 -3 35 -9 71 -11 81 -4 12 0 17 14 17 16 0 21 -10 27 -57z m273 40 c11
-10 23 -30 26 -45 6 -28 6 -28 -49 -28 -41 0 -55 -4 -55 -14 0 -20 35 -29 61
-16 16 9 24 9 33 0 16 -16 -19 -40 -61 -40 -46 0 -73 30 -73 80 0 70 68 106
118 63z m720 0 c11 -10 23 -30 26 -45 6 -28 6 -28 -49 -28 -41 0 -55 -4 -55
-14 0 -20 35 -29 61 -16 16 9 24 9 33 0 16 -16 -19 -40 -61 -40 -46 0 -73 30
-73 80 0 70 68 106 118 63z m105 -10 c3 -16 11 -41 18 -58 l12 -30 16 55 c14
44 21 56 40 58 20 3 23 0 17 -15 -4 -10 -17 -46 -29 -80 -19 -55 -25 -63 -47
-63 -23 0 -28 8 -52 80 l-26 80 23 0 c17 0 24 -7 28 -27z m255 10 c11 -10 23
-30 26 -45 6 -28 6 -28 -49 -28 -41 0 -55 -4 -55 -14 0 -20 35 -29 61 -16 16
9 24 9 33 0 16 -16 -19 -40 -61 -40 -46 0 -73 30 -73 80 0 70 68 106 118 63z
m363 -2 c18 -14 24 -29 24 -61 0 -49 -29 -80 -75 -80 -46 0 -75 31 -75 80 0
49 29 80 75 80 15 0 38 -9 51 -19z m99 9 c0 -6 8 -5 20 2 51 32 104 -33 84
-104 -12 -40 -54 -59 -84 -40 -19 11 -20 9 -20 -28 0 -33 -3 -40 -20 -40 -19
0 -20 7 -20 110 0 103 1 110 20 110 11 0 20 -5 20 -10z m258 -7 c11 -10 23
-30 26 -45 6 -28 6 -28 -49 -28 -41 0 -55 -4 -55 -14 0 -20 35 -29 61 -16 16
9 24 9 33 0 16 -16 -19 -40 -61 -40 -46 0 -73 30 -73 80 0 70 68 106 118 63z
m142 1 c0 -14 1 -14 16 0 22 23 54 20 54 -4 0 -15 -7 -20 -29 -20 -31 0 -41
-14 -41 -61 0 -26 4 -29 30 -29 20 0 30 -5 30 -15 0 -12 -14 -15 -70 -15 -56
0 -70 3 -70 15 0 8 9 15 20 15 17 0 20 7 20 50 0 43 -3 50 -20 50 -11 0 -20 7
-20 15 0 11 11 15 40 15 30 0 40 -4 40 -16z m-3380 -54 c0 -17 -7 -20 -50 -20
-43 0 -50 3 -50 20 0 17 7 20 50 20 43 0 50 -3 50 -20z m-1768 -632 c2 -27 0
-48 -4 -48 -5 0 -7 30 -7 68 2 69 6 62 11 -20z m62 67 c-16 -13 -17 -16 -4
-25 9 -6 10 -10 3 -10 -7 0 -13 -18 -15 -42 l-3 -43 -5 48 c-6 57 3 87 27 87
15 0 15 -2 -3 -15z m428 -27 c11 3 24 -1 29 -9 12 -19 11 -79 -1 -79 -5 0 -10
15 -10 34 0 60 -35 56 -43 -4 -2 -19 -4 -3 -4 35 0 39 2 58 4 44 3 -21 8 -26
25 -21z m398 17 c0 -18 4 -23 15 -19 21 8 45 -14 45 -41 0 -29 -18 -43 -52
-43 -28 0 -28 1 -28 64 0 36 4 64 10 64 6 0 10 -11 10 -25z m190 -38 l0 -63
-31 1 c-41 0 -57 24 -41 59 7 16 20 26 32 26 13 0 20 7 20 20 0 11 5 20 10 20
6 0 10 -28 10 -63z m303 -9 c2 -31 0 -55 -5 -52 -4 3 -8 33 -7 67 1 72 6 66
12 -15z m469 -10 c2 -27 0 -48 -4 -48 -5 0 -7 30 -7 68 2 69 6 62 11 -20z
m388 78 c0 -3 -4 -8 -10 -11 -5 -3 -10 -1 -10 4 0 6 5 11 10 11 6 0 10 -2 10
-4z m-2091 -44 c-13 -5 -11 -56 3 -70 9 -9 8 -12 -5 -12 -13 0 -17 9 -17 34 0
19 -4 38 -10 41 -6 4 -5 11 2 19 9 9 16 10 24 2 7 -6 8 -12 3 -14z m439 8 c15
-1 15 -2 0 -11 -23 -13 -23 -43 -1 -64 16 -16 15 -17 -3 -13 -14 2 -20 14 -24
44 -6 42 -1 81 8 57 2 -7 11 -13 20 -13z m2600 0 c15 -1 15 -2 0 -11 -10 -5
-18 -21 -18 -34 0 -13 8 -29 18 -35 15 -10 15 -10 -3 -8 -15 3 -21 13 -25 44
-6 42 -1 81 8 57 2 -7 11 -13 20 -13z m-3430 -45 c3 -39 1 -41 -27 -43 -16 -1
-32 2 -35 7 -10 16 5 41 25 41 11 0 19 7 19 16 0 11 -6 14 -21 9 -15 -5 -19
-4 -14 5 4 6 17 10 28 8 18 -2 23 -11 25 -43z m112 35 c0 -5 -6 -7 -14 -4 -8
3 -17 1 -21 -5 -3 -6 5 -15 20 -21 35 -13 30 -44 -8 -48 -15 -2 -27 1 -27 6 0
6 9 8 20 5 14 -4 20 0 20 11 0 9 -6 16 -14 16 -19 0 -29 17 -22 35 6 17 46 21
46 5z m90 -9 c15 -29 13 -31 -21 -31 -20 0 -29 -4 -26 -12 2 -7 13 -13 25 -12
12 0 19 -3 16 -8 -11 -17 -45 -7 -55 16 -22 48 36 93 61 47z m278 -26 c3 -39
2 -41 -28 -43 -24 -2 -30 2 -30 18 0 13 10 24 26 30 29 12 22 34 -8 24 -14 -4
-18 -3 -13 6 4 6 17 10 28 8 18 -2 23 -11 25 -43z m55 -31 c13 -13 27 9 27 42
0 19 5 34 10 34 6 0 10 -19 10 -43 0 -42 -1 -43 -32 -42 -32 0 -33 1 -35 45
l-1 45 7 -38 c4 -20 11 -40 14 -43z m138 49 c-5 -18 -15 -29 -29 -31 -33 -5
-26 -22 8 -22 39 0 43 -36 5 -46 -45 -11 -55 0 -49 53 8 69 10 73 43 73 27 0
29 -2 22 -27z m236 -10 l10 -38 8 38 c9 45 23 48 32 7 7 -39 19 -38 27 2 3 17
9 29 12 26 8 -9 -15 -88 -26 -88 -4 0 -12 15 -16 33 l-7 32 -14 -34 c-8 -19
-18 -30 -23 -25 -12 13 -30 84 -20 84 4 0 12 -17 17 -37z m171 25 c21 -21 13
-38 -18 -38 -38 0 -39 -15 -2 -28 22 -9 23 -11 7 -11 -27 -1 -45 17 -45 44 0
23 17 45 35 45 6 0 16 -5 23 -12z m333 -15 c8 -21 5 -23 -22 -23 -20 0 -29 -4
-26 -12 2 -7 13 -13 25 -12 12 0 19 -3 16 -8 -11 -17 -45 -7 -55 16 -8 17 -8
29 1 45 15 28 50 24 61 -6z m44 -15 l7 -33 18 40 c21 46 25 39 8 -16 -6 -22
-15 -39 -20 -39 -9 0 -38 61 -38 80 0 23 18 -1 25 -32z m123 30 c22 -22 13
-38 -19 -38 -20 0 -29 -4 -26 -12 2 -7 14 -13 26 -12 11 0 21 -3 21 -8 0 -11
-31 -10 -49 1 -7 5 -13 21 -13 36 0 39 35 58 60 33z m142 -2 c28 -35 -11 -93
-47 -70 -36 22 -23 84 17 84 10 0 23 -7 30 -14z m98 2 c29 -24 2 -88 -33 -74
-11 4 -15 -1 -15 -19 0 -14 -4 -25 -10 -25 -6 0 -10 28 -10 64 0 63 0 64 28
64 15 0 33 -5 40 -10z m90 0 c21 -21 13 -38 -18 -38 -38 0 -39 -15 -2 -28 22
-9 23 -11 7 -11 -27 -1 -45 17 -45 44 0 23 17 45 35 45 6 0 16 -5 23 -12z m69
0 c-11 -6 -17 -22 -17 -43 0 -19 -4 -35 -10 -35 -5 0 -10 20 -10 44 0 40 2 44
27 44 21 0 23 -2 10 -10z m201 0 c22 -22 13 -38 -19 -38 -20 0 -29 -4 -26 -12
2 -7 14 -13 26 -12 11 0 21 -3 21 -8 0 -11 -31 -10 -49 1 -7 5 -13 21 -13 36
0 39 35 58 60 33z m90 -33 c3 -38 1 -40 -27 -42 -17 -1 -33 2 -37 8 -7 12 14
39 30 38 7 0 6 -2 -1 -6 -14 -5 -18 -33 -5 -33 18 1 29 17 27 40 -1 18 -8 25
-23 24 -12 0 -19 3 -16 8 3 5 16 8 27 6 18 -2 23 -11 25 -43z m63 36 c-8 -5
-17 -26 -21 -47 l-8 -39 -1 45 c-1 41 2 46 21 47 16 2 19 0 9 -6z m95 -41 c1
-35 0 -37 -3 -10 -2 19 -8 39 -13 44 -14 15 -38 -12 -43 -47 -3 -25 -4 -22 -5
13 -2 45 -2 46 31 45 31 0 32 -1 33 -45z m41 -17 c-2 -16 -4 -5 -4 22 0 28 2
40 4 28 2 -13 2 -35 0 -50z m99 17 l2 -45 -7 40 c-8 53 -35 55 -39 3 -4 -53
-22 -48 -22 6 0 44 0 44 33 43 31 -2 32 -4 33 -47z m95 23 c-5 -18 -15 -29
-29 -31 -29 -4 -18 -22 13 -22 13 0 27 -5 30 -10 11 -18 -17 -41 -44 -38 -24
3 -26 7 -27 58 -1 57 7 70 43 70 18 0 20 -4 14 -27z m79 -38 c0 -56 -3 -65
-17 -64 -11 0 -13 3 -5 6 8 3 12 26 12 64 0 32 2 59 5 59 3 0 5 -29 5 -65z
m90 46 c5 -11 10 -31 10 -44 0 -22 -4 -25 -32 -24 -43 2 -51 33 -13 47 31 12
23 34 -8 25 -17 -5 -19 -4 -7 4 22 16 38 13 50 -8z m74 -24 c4 18 12 36 18 39
7 4 8 -2 3 -17 -26 -82 -36 -88 -53 -30 -17 55 -13 63 7 16 l18 -40 7 32z m94
31 c7 -7 12 -26 12 -43 0 -28 -3 -31 -32 -30 -26 0 -33 4 -33 20 0 12 8 21 20
23 20 4 20 3 1 -11 -13 -10 -15 -16 -8 -21 19 -12 32 3 32 36 0 25 -3 29 -20
25 -11 -3 -18 -1 -14 4 7 13 28 11 42 -3z m82 2 c0 -5 -6 -7 -14 -4 -8 3 -17
1 -21 -5 -3 -6 5 -15 20 -21 17 -7 25 -16 23 -27 -4 -21 -35 -30 -51 -14 -7 7
-4 8 10 5 31 -8 38 14 9 28 -25 11 -33 28 -19 41 10 11 43 8 43 -3z m84 2 c3
-5 -5 -8 -17 -8 -18 1 -22 -5 -22 -29 0 -25 4 -30 23 -29 14 0 19 -3 13 -9
-13 -13 -51 2 -52 21 -2 29 3 47 14 54 16 10 35 10 41 0z m63 -3 c-11 -7 -17
-22 -17 -44 0 -19 -4 -35 -10 -35 -5 0 -10 19 -10 43 0 39 2 42 27 44 22 1 24
-1 10 -8z m40 -56 c-2 -16 -4 -5 -4 22 0 28 2 40 4 28 2 -13 2 -35 0 -50z
m103 47 c16 -30 3 -60 -30 -67 -19 -3 -30 -13 -33 -27 -2 -11 -5 8 -6 44 l-1
66 30 2 c21 2 32 -4 40 -18z m193 -2 c16 -25 -8 -72 -33 -65 -16 4 -20 0 -20
-19 0 -13 -4 -24 -10 -24 -6 0 -10 28 -10 64 l0 64 31 -1 c18 -1 37 -10 42
-19z m64 11 c-11 -7 -17 -22 -17 -44 0 -19 -4 -35 -10 -35 -5 0 -10 19 -10 43
0 39 2 42 27 44 22 1 24 -1 10 -8z m87 -5 c9 -8 16 -22 16 -29 0 -17 -27 -45
-44 -45 -19 0 -36 22 -36 45 0 41 36 58 64 29z m97 -11 c-5 -18 -15 -29 -29
-31 -33 -5 -26 -22 8 -22 39 0 43 -36 5 -46 -35 -9 -55 10 -46 44 4 15 6 33 4
40 -9 24 6 42 36 42 27 0 29 -2 22 -27z m66 16 c-11 -7 -17 -22 -17 -44 0 -19
-4 -35 -10 -35 -5 0 -10 19 -10 43 0 39 2 42 27 44 22 1 24 -1 10 -8z m81 -35
c3 -39 2 -41 -25 -40 -21 1 -28 6 -28 20 0 11 6 20 13 22 7 1 8 0 2 -3 -17 -8
-11 -35 8 -31 12 2 17 13 17 33 -1 25 -4 30 -23 28 -14 -2 -21 1 -17 8 4 5 17
9 28 7 18 -2 23 -11 25 -44z m42 -9 l-8 -40 -1 50 c-1 29 3 45 8 40 5 -6 6
-28 1 -50z m106 5 l2 -45 -7 40 c-8 53 -35 55 -39 3 -4 -50 -22 -49 -22 1 0
22 -5 41 -12 44 -7 3 7 4 32 3 l45 -1 1 -45z m41 -17 c-2 -16 -4 -5 -4 22 0
28 2 40 4 28 2 -13 2 -35 0 -50z m99 17 l1 -45 -4 43 c-3 34 -8 43 -21 40 -11
-2 -19 -17 -23 -43 l-6 -40 -2 46 c-1 44 0 46 27 45 25 -1 27 -4 28 -46z m95
23 c-5 -18 -15 -29 -29 -31 -28 -4 -18 -22 12 -22 30 0 37 -9 25 -32 -7 -13
-19 -18 -37 -16 -26 3 -27 6 -28 58 -1 57 7 70 43 70 18 0 20 -4 14 -27z
m-2326 -53 c3 -5 1 -10 -4 -10 -6 0 -11 5 -11 10 0 6 2 10 4 10 3 0 8 -4 11
-10z m-973 -252 c2 -27 0 -48 -4 -48 -5 0 -7 30 -7 68 2 69 6 62 11 -20z m968
19 c0 -63 0 -63 -30 -65 -24 -2 -32 3 -39 20 -4 12 -6 30 -3 40 5 19 36 33 52
23 6 -4 10 5 10 19 0 14 2 26 5 26 3 0 5 -28 5 -63z m162 19 c13 4 24 1 29 -7
12 -19 11 -79 -1 -79 -5 0 -10 18 -10 40 0 22 -3 40 -7 40 -19 -1 -32 -18 -36
-50 -2 -19 -4 -3 -4 35 0 39 2 57 4 42 4 -23 8 -27 25 -21z m322 28 c-14 -11
-16 -17 -6 -21 8 -3 10 -9 3 -17 -5 -6 -11 -27 -13 -46 -3 -32 -4 -31 -8 13
-6 57 3 87 27 87 15 0 15 -2 -3 -16z m743 -43 l26 24 -12 -23 c-10 -19 -10
-28 4 -48 20 -30 9 -32 -15 -1 l-19 22 -10 -25 c-8 -20 -10 -11 -9 45 1 48 3
56 5 26 l4 -43 26 23z m-1129 19 c15 -1 15 -2 0 -11 -23 -13 -23 -43 -1 -64
16 -16 15 -17 -3 -13 -14 2 -20 14 -24 44 -6 42 -1 81 8 57 2 -7 11 -13 20
-13z m-980 -45 c3 -39 2 -41 -28 -43 -24 -2 -30 2 -30 18 0 13 10 24 26 30 29
12 22 34 -8 24 -14 -4 -18 -3 -13 6 4 6 17 10 28 8 18 -2 23 -11 25 -43z m99
-5 l1 -45 -7 38 c-4 20 -11 40 -14 44 -12 11 -36 -18 -40 -50 -3 -25 -4 -22
-5 13 -2 45 -2 46 31 45 31 0 32 -1 34 -45z m94 23 c-5 -18 -15 -29 -29 -31
-29 -4 -18 -22 14 -22 34 0 33 -37 -1 -46 -35 -9 -55 10 -46 44 4 15 6 33 4
40 -9 24 6 42 36 42 27 0 29 -2 22 -27z m59 -48 c10 0 16 12 18 38 4 51 22 47
22 -6 0 -42 -1 -43 -32 -42 -32 0 -33 1 -34 45 l-2 45 7 -40 c4 -26 11 -40 21
-40z m128 30 c3 -38 1 -40 -27 -42 -17 -1 -33 2 -37 8 -7 12 14 39 30 38 7 0
6 -2 -1 -6 -14 -5 -18 -33 -5 -33 18 1 29 17 27 40 -1 18 -8 25 -23 24 -12 0
-19 3 -16 8 3 5 16 8 27 6 18 -2 23 -11 25 -43z m94 20 c-3 -16 -13 -27 -28
-31 -34 -9 -30 -24 6 -24 19 0 30 -5 30 -14 0 -21 -26 -38 -52 -34 -21 3 -23
7 -19 58 4 67 5 70 40 70 25 0 28 -3 23 -25z m86 -2 c3 -19 -1 -23 -23 -23
-17 0 -25 -5 -22 -12 2 -7 13 -13 25 -12 12 0 19 -3 16 -8 -11 -17 -45 -7 -55
16 -8 17 -8 29 1 45 15 29 54 25 58 -6z m122 8 c5 -11 10 -31 10 -44 0 -22 -4
-25 -32 -24 -43 2 -51 33 -13 47 30 11 24 34 -7 24 -14 -4 -18 -2 -14 5 11 18
44 13 56 -8z m96 -31 l2 -45 -7 40 c-8 53 -35 55 -39 3 -4 -53 -22 -48 -22 6
0 44 0 44 33 43 31 -2 32 -4 33 -47z m378 44 c9 -3 16 -15 16 -25 0 -15 -7
-19 -31 -19 -33 0 -31 -16 5 -30 20 -9 20 -9 1 -9 -27 -1 -45 17 -45 44 0 21
17 45 31 45 4 0 14 -3 23 -6z m53 -61 c-2 -16 -4 -5 -4 22 0 28 2 40 4 28 2
-13 2 -35 0 -50z m64 51 c-11 -8 -22 -29 -24 -47 -3 -26 -4 -23 -5 13 -2 42 0
45 24 46 25 2 25 2 5 -12z m150 0 c-11 -8 -22 -29 -24 -47 -3 -26 -4 -23 -5
13 -2 42 0 45 24 46 25 2 25 2 5 -12z m87 -29 c3 -38 1 -40 -27 -42 -17 -1
-33 2 -37 8 -7 12 14 39 30 38 7 0 6 -2 -1 -6 -14 -5 -18 -33 -5 -33 18 1 29
17 27 40 -1 18 -8 25 -23 24 -12 0 -19 3 -16 8 3 5 16 8 27 6 18 -2 23 -11 25
-43z m148 -5 l2 -45 -7 40 c-8 53 -35 55 -39 3 -4 -51 -22 -49 -22 2 0 59 -33
48 -43 -15 -3 -23 -4 -19 -6 15 l-1 46 58 -1 57 0 1 -45z m92 23 c3 -19 -1
-23 -23 -23 -17 0 -25 -5 -22 -12 2 -7 13 -13 25 -12 12 0 19 -3 16 -8 -11
-17 -45 -7 -55 16 -8 17 -8 29 1 45 15 29 54 25 58 -6z m42 -3 c0 -32 17 -32
24 0 8 41 22 38 32 -7 l8 -38 10 38 c14 53 25 46 13 -8 -10 -44 -24 -58 -31
-32 -16 51 -19 53 -29 20 -13 -43 -21 -42 -35 6 -15 47 -15 54 -2 46 6 -3 10
-15 10 -25z m178 18 c7 -7 12 -21 12 -33 0 -46 -53 -62 -71 -21 -21 45 26 87
59 54z m69 -1 c-9 -7 -18 -28 -20 -47 -3 -31 -4 -30 -5 10 -2 40 1 46 19 47
19 2 19 0 6 -10z m-547 -738 c24 -11 53 -28 64 -37 31 -28 66 -113 66 -162 0
-49 -35 -134 -66 -162 -11 -9 -40 -26 -64 -37 -43 -20 -64 -21 -480 -21 l-435
0 -50 24 c-27 13 -58 32 -67 42 -30 34 -58 108 -58 154 0 46 28 120 58 154 9
10 40 29 67 42 l50 24 435 0 c416 0 437 -1 480 -21z"/>
<path d="M11666 5810 c-87 -27 -156 -120 -156 -210 0 -87 76 -187 158 -209 29
-8 175 -11 485 -9 484 3 468 1 531 64 46 47 60 83 60 154 0 71 -14 107 -60
154 -64 63 -46 61 -539 63 -247 1 -463 -2 -479 -7z m251 -176 c2 -7 -5 -10
-21 -7 -21 4 -26 0 -32 -21 -10 -39 2 -59 31 -53 33 6 43 -11 11 -19 -39 -9
-66 11 -66 51 0 18 7 41 16 50 18 17 55 17 61 -1z m265 -32 c-16 -5 -16 -49 1
-55 6 -2 9 -8 5 -12 -14 -15 -38 5 -38 33 0 15 -5 33 -12 40 -9 9 -9 12 0 12
7 0 12 8 12 17 0 14 4 12 22 -7 15 -16 18 -25 10 -28z m236 18 c16 -1 16 -2 0
-14 -22 -16 -24 -56 -3 -56 8 0 15 -5 15 -11 0 -6 -10 -9 -22 -7 -18 2 -24 12
-29 43 -7 41 11 100 19 63 2 -10 11 -18 20 -18z m-408 -14 c28 -35 -11 -93
-47 -70 -36 22 -23 84 17 84 10 0 23 -7 30 -14z m108 -33 c2 -26 -1 -43 -7
-43 -6 0 -11 16 -11 35 0 24 -5 35 -15 35 -10 0 -15 -11 -15 -35 0 -24 -5 -35
-15 -35 -11 0 -15 12 -15 44 l0 44 38 -1 c36 -2 37 -3 40 -44z m150 0 c3 -41
3 -41 -30 -40 -43 3 -49 30 -11 51 l28 15 -28 1 c-17 0 -26 4 -22 11 4 5 19 9
33 7 24 -3 27 -8 30 -45z m87 38 c3 -5 -5 -11 -17 -13 -32 -4 -31 -40 2 -49
23 -6 23 -7 6 -14 -38 -16 -73 37 -46 71 14 16 46 19 55 5z"/>
<path d="M11963 5584 c-8 -21 13 -42 28 -27 13 13 5 43 -11 43 -6 0 -13 -7
-17 -16z"/>
<path d="M12220 5560 c0 -5 7 -10 15 -10 8 0 15 5 15 10 0 6 -7 10 -15 10 -8
0 -15 -4 -15 -10z"/>
<path d="M810 5594 c0 -48 2 -54 20 -54 48 0 49 90 1 103 -19 5 -21 1 -21 -49z"/>
<path d="M1294 5626 c-3 -8 -4 -29 -2 -48 2 -28 7 -34 30 -36 22 -3 29 2 34
22 11 44 -3 76 -32 76 -13 0 -27 -6 -30 -14z"/>
<path d="M5150 5610 c0 -13 7 -20 20 -20 13 0 20 7 20 20 0 13 -7 20 -20 20
-13 0 -20 -7 -20 -20z"/>
<path d="M6880 5609 c0 -25 33 -22 38 4 2 12 -3 17 -17 17 -15 0 -21 -6 -21
-21z"/>
<path d="M5320 5575 c0 -20 4 -26 18 -23 9 2 17 12 17 23 0 11 -8 21 -17 23
-14 3 -18 -3 -18 -23z"/>
<path d="M5570 5590 c0 -5 9 -10 21 -10 11 0 17 5 14 10 -3 6 -13 10 -21 10
-8 0 -14 -4 -14 -10z"/>
<path d="M7048 5588 c-7 -19 2 -38 17 -38 15 0 24 19 18 38 -3 6 -11 12 -18
12 -7 0 -15 -6 -17 -12z"/>
<path d="M7190 5590 c0 -5 9 -10 21 -10 11 0 17 5 14 10 -3 6 -13 10 -21 10
-8 0 -14 -4 -14 -10z"/>
<path d="M7934 5585 c-7 -18 3 -35 22 -35 8 0 14 10 14 25 0 27 -27 35 -36 10z"/>
<path d="M8195 5560 c-3 -5 1 -10 9 -10 9 0 16 5 16 10 0 6 -4 10 -9 10 -6 0
-13 -4 -16 -10z"/>
<path d="M3140 5127 c0 -72 1 -77 22 -77 12 0 30 -7 40 -17 17 -15 18 -15 18
7 0 13 7 31 15 40 13 14 9 22 -40 70 l-55 54 0 -77z"/>
<path d="M8183 3943 c-19 -7 -17 -80 3 -87 27 -10 34 -7 44 19 18 46 -9 84
-47 68z"/>
<path d="M8543 3943 c-7 -2 -13 -22 -13 -43 0 -39 16 -55 45 -44 21 8 20 80
-1 88 -9 3 -16 6 -17 5 -1 0 -8 -3 -14 -6z"/>
<path d="M3677 3883 c-16 -15 -6 -34 15 -31 29 4 38 38 10 38 -10 0 -22 -3
-25 -7z"/>
<path d="M4217 3883 c-16 -15 -6 -34 15 -31 29 4 38 38 10 38 -10 0 -22 -3
-25 -7z"/>
<path d="M5294 3937 c-3 -8 -4 -30 -2 -49 2 -28 7 -33 28 -33 23 0 25 4 25 45
0 39 -3 45 -23 48 -13 2 -24 -3 -28 -11z"/>
<path d="M7097 3883 c-16 -15 -6 -34 15 -31 29 4 38 38 10 38 -10 0 -22 -3
-25 -7z"/>
<path d="M7997 3944 c-15 -15 -6 -24 24 -24 20 0 29 4 27 13 -5 14 -40 21 -51
11z"/>
<path d="M8717 3944 c-15 -15 -6 -24 24 -24 20 0 29 4 27 13 -5 14 -40 21 -51
11z"/>
<path d="M9077 3944 c-15 -15 -6 -24 24 -24 20 0 29 4 27 13 -5 14 -40 21 -51
11z"/>
<path d="M9434 3937 c-3 -8 -4 -30 -2 -49 2 -28 7 -33 28 -33 23 0 25 4 25 45
0 39 -3 45 -23 48 -13 2 -24 -3 -28 -11z"/>
<path d="M9623 3943 c-19 -7 -17 -80 3 -87 27 -10 34 -7 44 19 18 46 -9 84
-47 68z"/>
<path d="M9797 3944 c-15 -15 -6 -24 24 -24 20 0 29 4 27 13 -5 14 -40 21 -51
11z"/>
<path d="M5754 3296 c-9 -23 0 -51 16 -51 10 0 15 10 15 29 0 32 -21 47 -31
22z"/>
<path d="M5884 3296 c-9 -23 0 -51 16 -51 10 0 15 10 15 29 0 32 -21 47 -31
22z"/>
<path d="M4570 3255 c0 -17 2 -18 24 -9 23 9 20 24 -4 24 -11 0 -20 -7 -20
-15z"/>
<path d="M4777 3304 c-13 -13 -7 -24 14 -24 11 0 19 5 17 12 -5 14 -22 21 -31
12z"/>
<path d="M5068 3272 c-20 -4 -23 -17 -7 -28 12 -7 33 10 28 23 -2 5 -12 7 -21
5z"/>
<path d="M5244 3299 c-10 -17 13 -36 27 -22 12 12 4 33 -11 33 -5 0 -12 -5
-16 -11z"/>
<path d="M5235 3220 c-8 -13 20 -24 41 -16 20 8 9 26 -16 26 -10 0 -22 -5 -25
-10z"/>
<path d="M5660 3295 c-11 -13 -9 -15 15 -15 16 0 25 5 23 12 -7 19 -24 20 -38
3z"/>
<path d="M5987 3304 c-13 -13 -7 -24 14 -24 11 0 19 5 17 12 -5 14 -22 21 -31
12z"/>
<path d="M6157 3303 c-14 -13 -6 -23 19 -23 22 0 25 2 14 15 -14 16 -23 19
-33 8z"/>
<path d="M6290 3294 c-10 -11 -11 -20 -3 -32 17 -27 38 -20 38 12 0 34 -16 44
-35 20z"/>
<path d="M6394 3296 c-9 -23 0 -51 16 -51 10 0 15 10 15 29 0 32 -21 47 -31
22z"/>
<path d="M6490 3295 c-11 -13 -9 -15 15 -15 16 0 25 5 23 12 -7 19 -24 20 -38
3z"/>
<path d="M6757 3303 c-14 -13 -6 -23 19 -23 22 0 25 2 14 15 -14 16 -23 19
-33 8z"/>
<path d="M7234 3299 c-10 -17 13 -36 27 -22 12 12 4 33 -11 33 -5 0 -12 -5
-16 -11z"/>
<path d="M7233 3218 c2 -7 12 -13 22 -13 10 0 20 6 23 13 2 7 -6 12 -23 12
-17 0 -25 -5 -22 -12z"/>
<path d="M7416 3267 c-14 -10 -16 -16 -7 -22 15 -9 35 8 30 24 -3 8 -10 7 -23
-2z"/>
<path d="M7934 3296 c-10 -26 0 -51 21 -51 16 0 20 7 20 30 0 33 -30 49 -41
21z"/>
<path d="M8134 3296 c-9 -23 0 -51 16 -51 10 0 16 12 18 33 2 24 -1 32 -13 32
-8 0 -18 -6 -21 -14z"/>
<path d="M8290 3294 c-10 -11 -11 -20 -3 -32 17 -27 38 -20 38 12 0 34 -16 44
-35 20z"/>
<path d="M8384 3299 c-10 -17 13 -36 27 -22 12 12 4 33 -11 33 -5 0 -12 -5
-16 -11z"/>
<path d="M8380 3214 c0 -10 7 -14 22 -12 32 5 35 28 4 28 -17 0 -26 -5 -26
-16z"/>
<path d="M8915 3301 c-8 -15 3 -31 21 -31 9 0 14 7 12 17 -4 20 -24 28 -33 14z"/>
<path d="M8910 3214 c0 -10 7 -14 22 -12 32 5 35 28 4 28 -17 0 -26 -5 -26
-16z"/>
<path d="M6577 3014 c-10 -10 -9 -52 2 -58 20 -13 42 7 39 33 -3 25 -26 39
-41 25z"/>
<path d="M5718 2982 c-22 -4 -24 -32 -3 -32 9 0 18 7 22 15 7 19 3 22 -19 17z"/>
<path d="M5894 3009 c-10 -17 13 -36 27 -22 12 12 4 33 -11 33 -5 0 -12 -5
-16 -11z"/>
<path d="M5890 2924 c0 -10 7 -14 22 -12 32 5 35 28 4 28 -17 0 -26 -5 -26
-16z"/>
<path d="M6177 3014 c-14 -14 -7 -35 11 -32 9 2 17 10 17 17 0 16 -18 25 -28
15z"/>
<path d="M6165 2930 c-8 -13 20 -24 41 -16 20 8 9 26 -16 26 -10 0 -22 -5 -25
-10z"/>
<path d="M6267 3014 c-13 -13 -7 -24 14 -24 11 0 19 5 17 12 -5 14 -22 21 -31
12z"/>
<path d="M6396 2977 c-14 -10 -16 -16 -7 -22 15 -9 35 8 30 24 -3 8 -10 7 -23
-2z"/>
<path d="M6870 3005 c-11 -13 -9 -15 15 -15 16 0 25 5 23 12 -7 19 -24 20 -38
3z"/>
<path d="M7457 3014 c-13 -13 -7 -24 14 -24 11 0 19 5 17 12 -5 14 -22 21 -31
12z"/>
<path d="M7677 3014 c-11 -11 -8 -52 4 -60 6 -3 18 1 27 10 13 12 14 21 6 33
-12 20 -27 26 -37 17z"/>
<path d="M6760 2081 c0 -33 5 -63 11 -66 15 -10 15 -7 11 63 -5 79 -22 81 -22
3z"/>
<path d="M6490 2070 l0 -60 35 0 c19 0 35 5 35 10 0 6 -11 10 -25 10 -16 0
-25 6 -25 15 0 8 9 15 20 15 11 0 20 5 20 10 0 6 -9 10 -20 10 -11 0 -20 7
-20 15 0 9 9 15 25 15 14 0 25 5 25 10 0 6 -16 10 -35 10 l-35 0 0 -60z"/>
<path d="M6570 2092 c0 -4 5 -13 11 -19 8 -8 8 -17 -1 -33 -14 -26 -3 -43 12
-17 9 18 10 18 23 0 7 -10 17 -15 21 -11 4 4 1 15 -6 23 -10 12 -10 21 -2 40
13 27 -1 35 -16 9 -8 -15 -10 -15 -15 0 -6 16 -27 23 -27 8z"/>
<path d="M6660 2040 c0 -33 4 -60 10 -60 6 0 10 7 10 15 0 8 8 15 18 15 24 0
42 19 42 45 0 29 -19 45 -52 45 -28 0 -28 -1 -28 -60z m55 15 c0 -11 -8 -21
-17 -23 -14 -3 -18 3 -18 23 0 20 4 26 18 23 9 -2 17 -12 17 -23z"/>
<path d="M6809 2079 c-16 -31 3 -69 36 -69 17 0 29 8 36 24 15 32 -4 66 -36
66 -15 0 -29 -9 -36 -21z m54 -11 c6 -19 -3 -38 -19 -38 -8 0 -14 10 -14 25 0
26 25 35 33 13z"/>
<path d="M6910 2054 c0 -24 5 -44 10 -44 6 0 10 14 10 30 0 18 6 33 15 36 23
9 18 22 -10 22 -23 0 -25 -4 -25 -44z"/>
<path d="M6980 2086 c-27 -34 8 -88 46 -71 17 8 16 9 -8 13 -38 5 -36 22 2 22
33 0 35 3 20 31 -13 22 -43 25 -60 5z m45 -16 c3 -5 -3 -10 -14 -10 -12 0 -21
5 -21 10 0 6 6 10 14 10 8 0 18 -4 21 -10z"/>
</g>
</svg>
